<?xml version="1.0" encoding="UTF-8"?>
<svg version="1.1" xmlns="http://www.w3.org/2000/svg" width="223" height="247">
<path d="M0 0 C2.12119335 -0.00251317 4.24238045 -0.00647802 6.36357117 -0.01062775 C10.35483535 -0.01759429 14.34605739 -0.01478572 18.33732605 -0.01032257 C20.15632416 -0.01328339 20.15632416 -0.01328339 22.0120697 -0.01630402 C23.11907227 -0.01320221 24.22607483 -0.0101004 25.36662292 -0.0069046 C26.33692444 -0.00610901 27.30722595 -0.00531342 28.30693054 -0.00449371 C30.61857605 0.12248993 30.61857605 0.12248993 32.61857605 1.12248993 C32.61857605 10.36248993 32.61857605 19.60248993 32.61857605 29.12248993 C12.81857605 29.12248993 -6.98142395 29.12248993 -27.38142395 29.12248993 C-27.38142395 36.38248993 -27.38142395 43.64248993 -27.38142395 51.12248993 C-19.79142395 51.12248993 -12.20142395 51.12248993 -4.38142395 51.12248993 C-3.08780401 53.70972982 -3.25193446 55.60361996 -3.24861145 58.49748993 C-3.24732239 59.56483368 -3.24603333 60.63217743 -3.2447052 61.73186493 C-3.24857239 62.85077118 -3.25243958 63.96967743 -3.25642395 65.12248993 C-3.25255676 66.24139618 -3.24868958 67.36030243 -3.2447052 68.51311493 C-3.24663879 70.11413055 -3.24663879 70.11413055 -3.24861145 71.74748993 C-3.24973938 72.72975555 -3.25086731 73.71202118 -3.25202942 74.72405243 C-3.38142395 77.12248993 -3.38142395 77.12248993 -4.38142395 79.12248993 C-11.97142395 79.12248993 -19.56142395 79.12248993 -27.38142395 79.12248993 C-27.38142395 120.70248993 -27.38142395 162.28248993 -27.38142395 205.12248993 C-74.60229431 205.12248993 -74.60229431 205.12248993 -85.75642395 202.05998993 C-86.55387024 201.84374969 -87.35131653 201.62750946 -88.17292786 201.40471649 C-101.63396513 197.52815164 -113.24421299 190.47932523 -124.38142395 182.12248993 C-125.32630676 181.41608368 -126.27118958 180.70967743 -127.2447052 179.98186493 C-128.30238098 179.0614743 -128.30238098 179.0614743 -129.38142395 178.12248993 C-129.38142395 177.46248993 -129.38142395 176.80248993 -129.38142395 176.12248993 C-130.04142395 176.12248993 -130.70142395 176.12248993 -131.38142395 176.12248993 C-131.38142395 175.46248993 -131.38142395 174.80248993 -131.38142395 174.12248993 C-132.04142395 174.12248993 -132.70142395 174.12248993 -133.38142395 174.12248993 C-133.38142395 173.46248993 -133.38142395 172.80248993 -133.38142395 172.12248993 C-134.04142395 172.12248993 -134.70142395 172.12248993 -135.38142395 172.12248993 C-153.00130029 151.85549602 -163.16922357 123.92706893 -161.38142395 97.12248993 C-159.2366739 76.0413842 -152.74134647 56.08082393 -138.38142395 40.12248993 C-137.57060364 39.16987274 -136.75978333 38.21725555 -135.9243927 37.23577118 C-122.36836937 21.55474959 -103.85566479 7.68886607 -83.38142395 3.12248993 C-82.72867493 2.95313934 -82.0759259 2.78378876 -81.40339661 2.60930634 C-72.91707922 0.60390979 -64.30208358 0.65304043 -55.63142395 0.49748993 C-54.32612732 0.46996643 -54.32612732 0.46996643 -52.99446106 0.4418869 C-35.3319673 0.0711154 -17.66578375 0.01824965 0 0 Z M-93.38142395 38.12248993 C-93.96746399 38.50211884 -94.55350403 38.88174774 -95.15730286 39.27288055 C-98.3657473 41.40065854 -101.39071681 43.70119701 -104.38142395 46.12248993 C-105.08138489 46.64842743 -105.78134583 47.17436493 -106.5025177 47.71623993 C-116.12601857 55.3700184 -122.57985809 67.00153799 -127.38142395 78.12248993 C-127.79521301 79.02225555 -128.20900208 79.92202118 -128.6353302 80.84905243 C-133.9009839 94.4626937 -133.9079459 113.77030558 -128.63923645 127.38420868 C-128.22415833 128.28784149 -127.8090802 129.1914743 -127.38142395 130.12248993 C-126.94572083 131.13956024 -126.5100177 132.15663055 -126.06111145 133.20452118 C-122.77347771 140.34569283 -118.60010347 146.26762853 -113.38142395 152.12248993 C-112.77685364 152.80956024 -112.17228333 153.49663055 -111.5493927 154.20452118 C-100.25677886 166.25790059 -85.60147032 174.26727577 -69.38142395 177.12248993 C-65.42142395 177.12248993 -61.46142395 177.12248993 -57.38142395 177.12248993 C-57.38142395 144.78248993 -57.38142395 112.44248993 -57.38142395 79.12248993 C-67.61142395 79.12248993 -77.84142395 79.12248993 -88.38142395 79.12248993 C-88.23704895 75.59561493 -88.09267395 72.06873993 -87.94392395 68.43498993 C-87.90082092 67.33195526 -87.8577179 66.22892059 -87.81330872 65.09246063 C-87.77520081 64.21162811 -87.7370929 63.33079559 -87.6978302 62.42327118 C-87.66117249 61.52777557 -87.62451477 60.63227997 -87.58674622 59.70964813 C-87.38142395 57.12248993 -87.38142395 57.12248993 -86.38142395 52.12248993 C-76.81142395 51.79248993 -67.24142395 51.46248993 -57.38142395 51.12248993 C-57.38142395 43.86248993 -57.38142395 36.60248993 -57.38142395 29.12248993 C-72.45176655 26.80397568 -80.73500816 29.92744598 -93.38142395 38.12248993 Z " fill="#211F25" transform="translate(169.3814239501953,13.877510070800781)"/>
<path d="M0 0 C2.44494313 0.98548404 3.67162785 2.14351964 5.46948242 4.06518555 C6.0837207 4.72067383 6.69795898 5.37616211 7.33081055 6.05151367 C8.27537109 7.08501953 8.27537109 7.08501953 9.23901367 8.1394043 C9.88032227 8.81680664 10.52163086 9.49420898 11.18237305 10.19213867 C16.73112 16.18619161 16.73112 16.18619161 17.05151367 19.8269043 C15.33708356 21.96919393 13.72163551 23.71865357 11.73901367 25.5769043 C11.22661133 26.08350586 10.71420898 26.59010742 10.1862793 27.11206055 C6.34627235 30.8269043 6.34627235 30.8269043 4.05151367 30.8269043 C4.05151367 31.4869043 4.05151367 32.1469043 4.05151367 32.8269043 C-2.14721686 38.79352377 -9.46855486 43.79165207 -16.38598633 48.8894043 C-17.16699707 49.47375244 -17.94800781 50.05810059 -18.75268555 50.66015625 C-19.49663574 51.20115967 -20.24058594 51.74216309 -21.00708008 52.29956055 C-21.67022217 52.78690674 -22.33336426 53.27425293 -23.01660156 53.77636719 C-24.94848633 54.8269043 -24.94848633 54.8269043 -28.94848633 54.8269043 C-29.02265656 50.32458096 -29.07709683 45.82261339 -29.11328125 41.31982422 C-29.12836569 39.78818568 -29.14883611 38.25659032 -29.17480469 36.72509766 C-29.2112048 34.52324775 -29.22821546 32.32196897 -29.24145508 30.11987305 C-29.25693893 29.43539597 -29.27242279 28.75091888 -29.28837585 28.04570007 C-29.29005921 23.28790526 -29.29005921 23.28790526 -27.58618164 20.98828125 C-26.77552246 20.41339966 -26.77552246 20.41339966 -25.94848633 19.8269043 C-25.12477539 19.2081543 -24.30106445 18.5894043 -23.45239258 17.9519043 C-22.48172852 17.2506543 -21.51106445 16.5494043 -20.51098633 15.8269043 C-15.27116241 11.96866214 -10.53253291 7.82284018 -5.95849609 3.1940918 C-2.44485086 -0.21719074 -2.44485086 -0.21719074 0 0 Z " fill="#252329" transform="translate(184.948486328125,159.173095703125)"/>
<path d="M0 0 C5.38281517 3.54776454 9.06037963 8.56398052 13.046875 13.57421875 C14.92860787 16.00015186 14.92860787 16.00015186 17 18 C17 20.4375 17 20.4375 16 23 C13.37697673 24.74868218 11.39212228 26.053429 8.16796875 25.9296875 C4.8053704 24.48770839 2.59687575 21.86508265 0.125 19.25 C-2.92744009 16.06484513 -5.93303152 12.9933895 -9.3828125 10.234375 C-10.24648437 9.49703125 -11.11015625 8.7596875 -12 8 C-12 7.34 -12 6.68 -12 6 C-12.66 5.67 -13.32 5.34 -14 5 C-12.61217515 4.1533966 -11.21430603 3.32324661 -9.8125 2.5 C-9.03519531 2.0359375 -8.25789063 1.571875 -7.45703125 1.09375 C-4.70309121 -0.13216925 -2.98150065 -0.33891853 0 0 Z " fill="#848389" transform="translate(78,21)"/>
<path d="M0 0 C1.20849609 0.00644531 2.41699219 0.01289062 3.66210938 0.01953125 C5.55606445 0.04466797 5.55606445 0.04466797 7.48828125 0.0703125 C8.76251953 0.07933594 10.03675781 0.08835937 11.34960938 0.09765625 C14.50018752 0.12125609 17.65039108 0.15418056 20.80078125 0.1953125 C21.89860232 53.11134706 21.89860232 53.11134706 22.03295898 78.70202637 C22.0448286 80.61230357 22.06190815 82.52255558 22.08422852 84.43273926 C22.11365006 87.06990552 22.12406354 89.70644028 22.12890625 92.34375 C22.14121277 93.11816437 22.15351929 93.89257874 22.16619873 94.69046021 C22.15722656 96.81787109 22.15722656 96.81787109 21.80078125 100.1953125 C20.31578125 101.1853125 20.31578125 101.1853125 18.80078125 102.1953125 C18.14078125 101.5353125 17.48078125 100.8753125 16.80078125 100.1953125 C17.46078125 100.1953125 18.12078125 100.1953125 18.80078125 100.1953125 C18.80078125 67.8553125 18.80078125 35.5153125 18.80078125 2.1953125 C9.56078125 2.1953125 0.32078125 2.1953125 -9.19921875 2.1953125 C-5.6590865 -0.16477567 -4.1879992 -0.03932394 0 0 Z " fill="#120F14" transform="translate(93.19921875,90.8046875)"/>
<path d="M0 0 C3.54166012 0.01052577 7.08332851 0.01485786 10.625 0.01983643 C17.48309157 0.0303271 24.34115284 0.04721881 31.19921875 0.06866455 C31.69421875 1.05866455 31.69421875 1.05866455 32.19921875 2.06866455 C1.19447039 3.00300657 -29.78312924 3.19489219 -60.80078125 3.06866455 C-60.80078125 2.40866455 -60.80078125 1.74866455 -60.80078125 1.06866455 C-40.52315669 0.24378148 -20.29228463 -0.06711691 0 0 Z " fill="#635E64" transform="translate(168.80078125,13.93133544921875)"/>
<path d="M0 0 C0.6693723 2.79104343 1.33561092 5.58277023 2 8.375 C2.19078125 9.1690625 2.3815625 9.963125 2.578125 10.78125 C2.75859375 11.54179688 2.9390625 12.30234375 3.125 13.0859375 C3.29257813 13.7876709 3.46015625 14.4894043 3.6328125 15.21240234 C4 17 4 17 4 19 C-0.24507802 18.5047409 -2.76022815 15.86001618 -5.75 13.0625 C-6.25660156 12.60681641 -6.76320313 12.15113281 -7.28515625 11.68164062 C-8.56785768 10.50093297 -9.78935193 9.25448188 -11 8 C-11 7.34 -11 6.68 -11 6 C-11.66 5.67 -12.32 5.34 -13 5 C-11.58957044 4.15615325 -10.17135868 3.32530504 -8.75 2.5 C-7.56664063 1.80390625 -7.56664063 1.80390625 -6.359375 1.09375 C-4 0 -4 0 0 0 Z " fill="#F1F0F1" transform="translate(77,21)"/>
<path d="M0 0 C1.20849609 0.00644531 2.41699219 0.01289062 3.66210938 0.01953125 C5.55606445 0.04466797 5.55606445 0.04466797 7.48828125 0.0703125 C8.76251953 0.07933594 10.03675781 0.08835937 11.34960938 0.09765625 C14.50018752 0.12125609 17.65039108 0.15418056 20.80078125 0.1953125 C20.9345283 22.22036499 20.64335431 44.1853321 19.80078125 66.1953125 C19.47078125 66.1953125 19.14078125 66.1953125 18.80078125 66.1953125 C18.80078125 45.0753125 18.80078125 23.9553125 18.80078125 2.1953125 C9.56078125 2.1953125 0.32078125 2.1953125 -9.19921875 2.1953125 C-5.6590865 -0.16477567 -4.1879992 -0.03932394 0 0 Z " fill="#1C1923" transform="translate(93.19921875,90.8046875)"/>
<path d="M0 0 C1.06367294 0.00222061 2.12734589 0.00444122 3.22325134 0.00672913 C5.02500572 0.00684242 5.02500572 0.00684242 6.86315918 0.00695801 C8.17042465 0.01211929 9.47769012 0.01728058 10.8245697 0.02259827 C12.16835477 0.02446253 13.51214052 0.02588639 14.85592651 0.02688599 C18.39873622 0.0307105 21.94150515 0.0405402 25.48429871 0.05158997 C29.09706572 0.06180552 32.7098393 0.06638392 36.32261658 0.07142639 C43.41573225 0.08216254 50.50882019 0.09923816 57.60191345 0.12025452 C57.60191345 0.45025452 57.60191345 0.78025452 57.60191345 1.12025452 C37.92333385 2.14934296 18.30019633 2.22584388 -1.39808655 2.12025452 C-1.39808655 7.40025452 -1.39808655 12.68025452 -1.39808655 18.12025452 C-1.72808655 18.12025452 -2.05808655 18.12025452 -2.39808655 18.12025452 C-2.59192834 15.30805746 -2.77845257 12.49571256 -2.96058655 9.68275452 C-3.01666077 8.88031311 -3.07273499 8.0778717 -3.13050842 7.25111389 C-3.25971605 5.2096334 -3.33321385 3.16479083 -3.39808655 1.12025452 C-2.39808655 0.12025452 -2.39808655 0.12025452 0 0 Z " fill="#131218" transform="translate(143.39808654785156,40.87974548339844)"/>
<path d="M0 0 C3.06527514 2.35790395 4.72042487 3.7104105 5.5546875 7.55859375 C5.78736655 10.0440291 5.94670013 12.50459714 6 15 C6.66 15 7.32 15 8 15 C8.12375 15.969375 8.2475 16.93875 8.375 17.9375 C8.58125 18.948125 8.7875 19.95875 9 21 C9.66 21.33 10.32 21.66 11 22 C10.67 23.32 10.34 24.64 10 26 C6.2047869 24.50902342 4.38957269 22.24299151 2 19 C2.66 19 3.32 19 4 19 C3.71125 18.04738281 3.4225 17.09476563 3.125 16.11328125 C2.75375 14.85902344 2.3825 13.60476562 2 12.3125 C1.62875 11.07113281 1.2575 9.82976563 0.875 8.55078125 C0.12296543 5.4989981 -0.19034899 3.11101638 0 0 Z " fill="#AEAEB0" transform="translate(77,21)"/>
<path d="M0 0 C1.20849609 0.00644531 2.41699219 0.01289062 3.66210938 0.01953125 C5.55606445 0.04466797 5.55606445 0.04466797 7.48828125 0.0703125 C8.76251953 0.07933594 10.03675781 0.08835937 11.34960938 0.09765625 C14.50018752 0.12125609 17.65039108 0.15418056 20.80078125 0.1953125 C20.47078125 1.1853125 20.14078125 2.1753125 19.80078125 3.1953125 C10.23078125 2.8653125 0.66078125 2.5353125 -9.19921875 2.1953125 C-5.6590865 -0.16477567 -4.1879992 -0.03932394 0 0 Z " fill="#131117" transform="translate(93.19921875,90.8046875)"/>
<path d="M0 0 C7.26 0 14.52 0 22 0 C22.33 0.99 22.66 1.98 23 3 C11.615 2.505 11.615 2.505 0 2 C0 1.34 0 0.68 0 0 Z " fill="#3C3B42" transform="translate(143,65)"/>
<path d="M0 0 C0.66 0.99 1.32 1.98 2 3 C1.07038578 4.15224028 0.1309875 5.29659176 -0.8125 6.4375 C-1.59560547 7.39462891 -1.59560547 7.39462891 -2.39453125 8.37109375 C-4 10 -4 10 -7 11 C-7.33 11.99 -7.66 12.98 -8 14 C-8.66 14 -9.32 14 -10 14 C-8.62815653 9.93501119 -6.77931541 7.32603439 -3.875 4.1875 C-3.15054687 3.39730469 -2.42609375 2.60710938 -1.6796875 1.79296875 C-1.12539063 1.20128906 -0.57109375 0.60960937 0 0 Z " fill="#3C3B40" transform="translate(34,51)"/>
<path d="M0 0 C2 2 2 2 2.125 4.625 C2.08375 5.40875 2.0425 6.1925 2 7 C2.66 7 3.32 7 4 7 C4.12375 7.969375 4.2475 8.93875 4.375 9.9375 C4.684375 11.4534375 4.684375 11.4534375 5 13 C5.66 13.33 6.32 13.66 7 14 C6.67 15.32 6.34 16.64 6 18 C4.078125 17.33203125 4.078125 17.33203125 2 16 C1.171875 13.57421875 1.171875 13.57421875 0.75 10.6875 C0.60046875 9.74261719 0.4509375 8.79773437 0.296875 7.82421875 C0.01987393 5.18906381 -0.05785682 2.64694966 0 0 Z " fill="#9F9EA3" transform="translate(81,29)"/>
<path d="M0 0 C3.53586014 3.17320782 5.58578031 5.16743695 6 10 C4.02 10.33 2.04 10.66 0 11 C0 7.37 0 3.74 0 0 Z " fill="#757276" transform="translate(89,33)"/>
<path d="M0 0 C0.66 0.33 1.32 0.66 2 1 C0.515 2.485 0.515 2.485 -1 4 C-0.67 4.99 -0.34 5.98 0 7 C-0.66 7 -1.32 7 -2 7 C-2 7.66 -2 8.32 -2 9 C-4.31 8.67 -6.62 8.34 -9 8 C-6.14723863 5.06799526 -3.34920216 2.35684596 0 0 Z " fill="#47454B" transform="translate(59,29)"/>
<path d="M0 0 C0.66 0 1.32 0 2 0 C2.20413361 5.73842251 2.27141454 10.60539047 0 16 C-0.33 16 -0.66 16 -1 16 C-1.02692484 13.70839681 -1.04636124 11.41670454 -1.0625 9.125 C-1.07410156 7.84882812 -1.08570313 6.57265625 -1.09765625 5.2578125 C-1 2 -1 2 0 0 Z " fill="#0F0D10" transform="translate(9,109)"/>
<path d="M0 0 C0.33 0.66 0.66 1.32 1 2 C-1.04796007 5.0719401 -2.68290303 6.45202141 -6 8 C-6.33 8.66 -6.66 9.32 -7 10 C-7.99 9.67 -8.98 9.34 -10 9 C-6.7 6.03 -3.4 3.06 0 0 Z " fill="#6D6C6E" transform="translate(179,163)"/>
<path d="M0 0 C0.66 0.99 1.32 1.98 2 3 C0.75 4.5625 0.75 4.5625 -1 6 C-3.1875 5.6875 -3.1875 5.6875 -5 5 C-3.35 3.35 -1.7 1.7 0 0 Z " fill="#454349" transform="translate(34,51)"/>
<path d="M0 0 C2.89932357 2.39509338 3.50168276 4.31245243 4 8 C0.125 6.25 0.125 6.25 -1 4 C-0.34 4 0.32 4 1 4 C0.67 2.68 0.34 1.36 0 0 Z " fill="#CDCDD1" transform="translate(80,36)"/>
</svg>
